<svg viewBox="0 0 24 24" xml:space="preserve" xmlns="http://www.w3.org/2000/svg"><path d="M20.9 0H1.1C.5 0 0 .5 0 1.1v21.8c0 .6.5 1.1 1.1 1.1h19.8c.6 0 1.1-.5 1.1-1.1V1.1c0-.6-.5-1.1-1.1-1.1zM16 1v3H6V1h10zM4.9 4c.1.6.5 1 1.1 1h10c.6 0 1-.4 1.1-1h.9v16H4V4h.9zM20 22H2V2h3v1H3v18h16V3h-2V2h3v20z" fill="#0066ff" class="fill-000000"></path><path d="M10 10h6v1h-6zM10 8h6v1h-6zM9 8H6v3h3V8zm-1 2H7V9h1v1zM10 16h6v1h-6zM10 14h6v1h-6zM9 14H6v3h3v-3zm-1 2H7v-1h1v1z" fill="#0066ff" class="fill-000000"></path></svg>